# xmcd
#
# Track frame offsets:
#	150
#	13902
#	28460
#	43402
#	57750
#	71335
#	87352
#	97495
#	111282
#	125142
#	139367
#	153915
#	169667
#	187602
#	204807
#
# Disc length: 2972 seconds
#
# Revision: 1
# Processed by: cddbd v1.5.2PL0 Copyright (c) Steve Scherf et al.
# Submitted via: audiograbber 1.83.01
#
DISCID=d90b9a0f
DTITLE=Jan-Paul van der Meij - Niks voor jou
DYEAR=1900
DGENRE=
TTITLE0=Jan Paul van der Meij - Niks voor jou
TTITLE1=Jan Paul van der Meij - Mooie rijke vrouw
TTITLE2=Jan Paul van der Meij - Ze weten
TTITLE3=Jan Paul van der Meij - Wil ze wel
TTITLE4=Jan Paul van der Meij - Help Miranda
TTITLE5=Jan Paul van der Meij - Echte artiesten
TTITLE6=Jan Paul van der Meij - Heimwee naar jou
TTITLE7=Jan Paul van der Meij - Sylvia
TTITLE8=Jan Paul van der Meij - Alles draait om jou
TTITLE9=Jan Paul van der Meij - Klote Auto's
TTITLE10=Jan Paul van der Meij - Calorie Carola
TTITLE11=Jan Paul van der Meij - Blauwe transistorradio
TTITLE12=Jan Paul van der Meij - Pontje van Akersloot
TTITLE13=Jan Paul van der Meij - Nina
TTITLE14=Jan Paul van der Meij - Je bent m'n type niet
EXTD=
EXTT0=
EXTT1=
EXTT2=
EXTT3=
EXTT4=
EXTT5=
EXTT6=
EXTT7=
EXTT8=
EXTT9=
EXTT10=
EXTT11=
EXTT12=
EXTT13=
EXTT14=
PLAYORDER=
